<?xml version="1.0" encoding="utf-8"?>
<COLLADA xmlns="http://www.collada.org/2005/11/COLLADASchema" version="1.4.1" xmlns:xsi="http://www.w3.org/2001/XMLSchema-instance">
  <asset>
    <contributor>
      <author>Blender User</author>
      <authoring_tool>Blender 4.2.0 commit date:2024-07-16, commit time:06:20, hash:a51f293548ad</authoring_tool>
    </contributor>
    <created>2025-07-23T15:08:16</created>
    <modified>2025-07-23T15:08:16</modified>
    <unit name="meter" meter="1"/>
    <up_axis>Z_UP</up_axis>
  </asset>
  <library_images/>
  <library_geometries>
    <geometry id="base_link-mesh" name="base_link">
      <mesh>
        <source id="base_link-mesh-positions">
          <float_array id="base_link-mesh-positions-array" count="114">0.6915779 -2 4 0.6915779 -2 0 0.5187979 -1.575223 4 0.5187979 -1.575223 0 0.387784 -1.135765 4 0.387784 -1.135765 0 0.2997565 -0.685721 4 0.2997565 -0.685721 0 0.255537 -0.229286 4 0.255537 -0.229286 0 0.255537 0.229286 4 0.255537 0.229286 0 0.2997565 0.685721 4 0.2997565 0.685721 0 0.387784 1.135765 4 0.387784 1.135765 0 0.5187979 1.575223 4 0.5187979 1.575223 0 0.6915779 2 4 0.6915779 2 0 0.4174242 2 4 0.4174242 2 0 0.2362585 1.518805 0 0.2362585 1.518805 4 0.1054682 1.021548 0 0.1054682 1.021548 4 0.0264368 0.5134891 0 0.0264368 0.5134891 4 0 0 0 0 0 4 0.0264368 -0.5134891 0 0.0264368 -0.5134891 4 0.1054682 -1.021548 0 0.1054682 -1.021548 4 0.2362585 -1.518805 0 0.2362585 -1.518805 4 0.4174242 -2 0 0.4174242 -2 4</float_array>
          <technique_common>
            <accessor source="#base_link-mesh-positions-array" count="38" stride="3">
              <param name="X" type="float"/>
              <param name="Y" type="float"/>
              <param name="Z" type="float"/>
            </accessor>
          </technique_common>
        </source>
        <source id="base_link-mesh-normals">
          <float_array id="base_link-mesh-normals-array" count="114">0.6875551 -0.4625905 0.5597124 0.687564 -0.4626036 -0.5596908 0.6565244 0.2307801 0.7181339 0.6565216 0.2307788 -0.718137 0.675723 0.166398 0.7181296 0.6757166 0.1663962 -0.7181361 0.6886227 0.1004638 0.7181267 0.6886121 0.100462 -0.7181372 0.6950948 0.03359192 0.7181329 0.6950895 0.03359138 -0.7181381 0.6950895 -0.03359138 0.7181381 0.6950948 -0.03359192 -0.7181329 0.6886121 -0.100462 0.7181372 0.6886227 -0.1004638 -0.7181267 0.6757166 -0.1663962 0.7181361 0.675723 -0.166398 -0.7181296 0.6565216 -0.2307788 0.718137 0.6565244 -0.2307801 -0.7181339 0.687564 0.4626036 0.5596908 0.6875551 0.4625905 -0.5597124 -0.4558064 0.6586461 0.5986868 -0.4557999 0.6586466 -0.5986912 -0.6843732 0.218196 -0.6957182 -0.6843727 0.2181958 0.6957188 -0.7031679 0.1467598 -0.6957129 -0.7031565 0.1467573 0.695725 -0.714527 0.07377034 -0.6957077 -0.7145068 0.07376813 0.6957286 -0.7183156 0 -0.6957175 -0.7183156 0 0.6957175 -0.7145068 -0.07376813 -0.6957286 -0.714527 -0.07377034 0.6957077 -0.7031565 -0.1467573 -0.695725 -0.7031679 -0.1467598 0.6957129 -0.6843727 -0.2181958 -0.6957188 -0.6843732 -0.218196 0.6957182 -0.4558064 -0.6586461 -0.5986868 -0.4557999 -0.6586466 0.5986912</float_array>
          <technique_common>
            <accessor source="#base_link-mesh-normals-array" count="38" stride="3">
              <param name="X" type="float"/>
              <param name="Y" type="float"/>
              <param name="Z" type="float"/>
            </accessor>
          </technique_common>
        </source>
        <vertices id="base_link-mesh-vertices">
          <input semantic="POSITION" source="#base_link-mesh-positions"/>
        </vertices>
        <triangles count="72">
          <input semantic="VERTEX" source="#base_link-mesh-vertices" offset="0"/>
          <input semantic="NORMAL" source="#base_link-mesh-normals" offset="1"/>
          <p>0 0 1 1 2 2 2 2 1 1 3 3 2 2 3 3 4 4 4 4 3 3 5 5 4 4 5 5 6 6 6 6 5 5 7 7 6 6 7 7 8 8 8 8 7 7 9 9 8 8 9 9 10 10 10 10 9 9 11 11 10 10 11 11 12 12 12 12 11 11 13 13 12 12 13 13 14 14 14 14 13 13 15 15 14 14 15 15 16 16 16 16 15 15 17 17 16 16 17 17 18 18 18 18 17 17 19 19 20 20 18 18 21 21 21 21 18 18 19 19 20 20 21 21 22 22 20 20 22 22 23 23 23 23 22 22 24 24 23 23 24 24 25 25 25 25 24 24 26 26 25 25 26 26 27 27 27 27 26 26 28 28 27 27 28 28 29 29 29 29 28 28 30 30 29 29 30 30 31 31 31 31 30 30 32 32 31 31 32 32 33 33 33 33 32 32 34 34 33 33 34 34 35 35 35 35 34 34 36 36 35 35 36 36 37 37 0 0 37 37 1 1 1 1 37 37 36 36 37 37 0 0 35 35 35 35 0 0 2 2 35 35 2 2 33 33 33 33 2 2 4 4 33 33 4 4 31 31 31 31 4 4 6 6 31 31 6 6 29 29 18 18 20 20 16 16 16 16 20 20 23 23 16 16 23 23 14 14 14 14 23 23 25 25 14 14 25 25 12 12 12 12 25 25 27 27 12 12 27 27 10 10 10 10 27 27 29 29 10 10 29 29 8 8 8 8 29 29 6 6 21 21 19 19 22 22 22 22 19 19 17 17 22 22 17 17 24 24 24 24 17 17 15 15 24 24 15 15 26 26 26 26 15 15 13 13 26 26 13 13 28 28 1 1 36 36 3 3 3 3 36 36 34 34 3 3 34 34 5 5 5 5 34 34 32 32 5 5 32 32 7 7 7 7 32 32 30 30 7 7 30 30 9 9 9 9 30 30 28 28 9 9 28 28 11 11 11 11 28 28 13 13</p>
        </triangles>
      </mesh>
    </geometry>
  </library_geometries>
  <library_visual_scenes>
    <visual_scene id="Scene" name="Scene">
      <node id="base_link" name="base_link" type="NODE">
        <matrix sid="transform">1 0 0 0 0 1 0 0 0 0 1 0 0 0 0 1</matrix>
        <instance_geometry url="#base_link-mesh" name="base_link"/>
      </node>
    </visual_scene>
  </library_visual_scenes>
  <scene>
    <instance_visual_scene url="#Scene"/>
  </scene>
</COLLADA>