<?xml version="1.0" encoding="utf-8"?>
<COLLADA xmlns="http://www.collada.org/2005/11/COLLADASchema" version="1.4.1" xmlns:xsi="http://www.w3.org/2001/XMLSchema-instance">
  <asset>
    <contributor>
      <author>Blender User</author>
      <authoring_tool>Blender 4.2.0 commit date:2024-07-16, commit time:06:20, hash:a51f293548ad</authoring_tool>
    </contributor>
    <created>2025-03-04T20:43:40</created>
    <modified>2025-03-04T20:43:40</modified>
    <unit name="meter" meter="1"/>
    <up_axis>Z_UP</up_axis>
  </asset>
  <library_images/>
  <library_geometries>
    <geometry id="base_link-mesh" name="base_link">
      <mesh>
        <source id="base_link-mesh-positions">
          <float_array id="base_link-mesh-positions-array" count="174">-0.04999995 0.5 -0.9 -0.04999995 0.3 -0.9 -0.04999995 0.5 0.25 -0.04999995 0.3 -0.25 -0.04999995 -0.3 -0.9 -0.04999995 -0.5 -0.9 -0.04999995 -0.3 -0.25 -0.04999995 -0.5 0.25 -0.04999995 -0.01299035 -0.007499992 -0.04999995 -0.01499998 0 -0.04999995 -0.01299035 0.007499992 -0.04999995 0.01299035 -0.007499992 -0.04999995 0.01499998 0 -0.04999995 0.01299035 0.007499992 -0.04999995 -0.007499992 -0.01299035 -0.04999995 0 -0.01499998 -0.04999995 0.007499992 -0.01299035 -0.04999995 0.007499992 0.01299035 -0.04999995 0 0.01499998 -0.04999995 -0.007499992 0.01299035 0.04999995 -0.5 -0.9 0.04999995 -0.3 -0.9 0.04999995 -0.5 0.25 0.04999995 -0.3 -0.25 0.04999995 0.3 -0.9 0.04999995 0.5 -0.9 0.04999995 0.3 -0.25 0.04999995 0.5 0.25 0.04999995 0.01499998 0 0.04999995 0.01299035 0.007499992 0.04999995 0 -0.01499998 0.04999995 0.007499992 -0.01299035 0.04999995 0.01299035 -0.007499992 0.04999995 -0.007499992 -0.01299035 0.04999995 -0.01299035 -0.007499992 0.04999995 -0.01499998 0 0.04999995 -0.01299035 0.007499992 0.04999995 -0.007499992 0.01299035 0.04999995 0 0.01499998 0.04999995 0.007499992 0.01299035 -0.4 -0.5 -0.9 -0.4 -0.5 -1 0.4 -0.5 -1 0.4 -0.5 -0.9 0.4 0.5 -1 -0.4 0.5 -1 -0.4 0.5 -0.9 0.4 0.5 -0.9 -0.04999995 0.01499998 0 0.04999995 0.01499998 0 0.4 0.3 -1 -0.4 0.3 -1 0.4 0.3 -0.9 -0.4 0.3 -0.9 0.4 -0.3 -0.9 0.4 -0.3 -1 -0.4 -0.3 -1 -0.4 -0.3 -0.9</float_array>
          <technique_common>
            <accessor source="#base_link-mesh-positions-array" count="58" stride="3">
              <param name="X" type="float"/>
              <param name="Y" type="float"/>
              <param name="Z" type="float"/>
            </accessor>
          </technique_common>
        </source>
        <source id="base_link-mesh-normals">
          <float_array id="base_link-mesh-normals-array" count="174">-0.3015144 0.904532 0.3015145 -0.3015079 -0.9045362 0.3015084 -0.5773329 0.577359 0.577359 -0.9045363 -0.3015087 -0.3015072 -0.3015122 0.9045347 0.3015085 -0.3015019 -0.9045352 0.3015171 -0.9045307 0.3015165 -0.3015165 -0.5773397 -0.5773564 0.5773548 -0.7702589 0.5522922 0.3188646 -0.7702522 0.6377394 -1.34032e-6 -0.7702625 0.5522872 -0.3188647 -0.7702553 -0.5522948 0.318869 -1 0 0 -0.7702625 -0.5522884 -0.3188624 -0.7702617 0.318865 0.552288 -0.7702642 1.34029e-6 0.637725 -0.7702617 -0.3188627 0.5522893 -0.7702523 -0.3188707 -0.552298 -0.7702637 -1.3403e-6 -0.6377257 -0.7702522 0.3188685 -0.5522993 0.30151 -0.9045345 0.3015117 0.3015123 0.9045333 0.3015127 0.5773329 -0.577359 0.577359 0.9045361 0.301509 -0.3015075 0.3015165 -0.9045318 0.3015128 0.3014975 0.9045378 0.3015142 0.9045308 -0.3015162 -0.3015162 0.5773397 0.5773564 0.5773548 1 0 0 0.7702625 -0.5522872 -0.3188647 0.7702637 -5.69939e-7 0.6377257 0.7702613 -0.3188652 0.5522884 0.7702589 -0.5522922 0.3188646 0.7702618 0.3188627 0.5522893 0.7702553 0.5522948 0.318869 0.7702557 0.6377352 1.34032e-6 0.7702625 0.5522884 -0.3188624 0.7702523 0.3188707 -0.552298 0.7702637 1.3403e-6 -0.6377257 0.7702522 -0.3188685 -0.5522993 -0.5773527 -0.5773527 0.5773456 -0.5773547 -0.5773457 -0.5773504 0.5773612 -0.5773286 -0.5773611 0.5773405 -0.5773587 0.5773516 0.5773565 0.5773422 -0.5773522 -0.5773593 0.5773322 -0.5773593 -0.5773405 0.5773587 0.5773516 0.5773527 0.5773527 0.5773456 0 -1 2.1023e-6 0 -1 -2.10168e-6 0.5773593 -0.5773322 -0.5773593 -0.5773565 -0.5773422 -0.5773522 0.5773382 -0.5773563 0.5773563 -0.5773503 -0.5773503 0.5773503 0.5773503 0.5773503 0.5773503 0.5773547 0.5773457 -0.5773504 -0.5773611 0.5773286 -0.5773611 -0.5773382 0.5773563 0.5773563</float_array>
          <technique_common>
            <accessor source="#base_link-mesh-normals-array" count="58" stride="3">
              <param name="X" type="float"/>
              <param name="Y" type="float"/>
              <param name="Z" type="float"/>
            </accessor>
          </technique_common>
        </source>
        <vertices id="base_link-mesh-vertices">
          <input semantic="POSITION" source="#base_link-mesh-positions"/>
        </vertices>
        <triangles count="112">
          <input semantic="VERTEX" source="#base_link-mesh-vertices" offset="0"/>
          <input semantic="NORMAL" source="#base_link-mesh-normals" offset="1"/>
          <p>0 0 1 1 2 2 2 2 1 1 3 3 4 4 5 5 6 6 6 6 5 5 7 7 8 8 6 6 9 9 9 9 6 6 7 7 9 9 7 7 10 10 3 3 11 11 2 2 2 2 11 11 12 12 2 2 12 12 13 13 8 8 14 14 6 6 6 6 14 14 15 15 6 6 15 15 3 3 3 3 15 15 16 16 3 3 16 16 11 11 13 13 17 17 2 2 2 2 17 17 18 18 2 2 18 18 7 7 7 7 18 18 19 19 7 7 19 19 10 10 20 20 21 21 22 22 22 22 21 21 23 23 24 24 25 25 26 26 26 26 25 25 27 27 26 26 27 27 28 28 28 28 27 27 29 29 30 30 23 23 31 31 31 31 23 23 26 26 31 31 26 26 32 32 32 32 26 26 28 28 30 30 33 33 23 23 23 23 33 33 34 34 23 23 34 34 22 22 22 22 34 34 35 35 22 22 35 35 36 36 36 36 37 37 22 22 22 22 37 37 38 38 22 22 38 38 27 27 27 27 38 38 39 39 27 27 39 39 29 29 6 6 3 3 23 23 23 23 3 3 26 26 5 5 40 40 41 41 42 42 43 43 20 20 22 22 7 7 20 20 20 20 7 7 5 5 20 20 5 5 42 42 42 42 5 5 41 41 2 2 7 7 27 27 27 27 7 7 22 22 44 44 45 45 0 0 0 0 45 45 46 46 47 47 44 44 25 25 25 25 44 44 0 0 25 25 0 0 27 27 27 27 0 0 2 2 48 48 49 49 13 13 13 13 49 49 29 29 13 13 29 29 17 17 17 17 29 29 39 39 17 17 39 39 18 18 18 18 39 39 38 38 18 18 38 38 19 19 19 19 38 38 37 37 19 19 37 37 10 10 10 10 37 37 36 36 10 10 36 36 9 9 9 9 36 36 35 35 9 9 35 35 8 8 8 8 35 35 34 34 8 8 34 34 14 14 14 14 34 34 33 33 14 14 33 33 15 15 15 15 33 33 30 30 15 15 30 30 16 16 16 16 30 30 31 31 16 16 31 31 11 11 11 11 31 31 32 32 11 11 32 32 48 48 48 48 32 32 49 49 50 50 51 51 44 44 44 44 51 51 45 45 51 51 50 50 24 24 24 24 50 50 52 52 53 53 51 51 1 1 1 1 51 51 24 24 1 1 24 24 3 3 3 3 24 24 26 26 21 21 54 54 55 55 56 56 57 57 4 4 6 6 23 23 4 4 4 4 23 23 21 21 4 4 21 21 56 56 56 56 21 21 55 55 42 42 41 41 55 55 55 55 41 41 56 56 47 47 52 52 44 44 44 44 52 52 50 50 52 52 47 47 24 24 24 24 47 47 25 25 0 0 46 46 1 1 1 1 46 46 53 53 53 53 46 46 51 51 51 51 46 46 45 45 54 54 43 43 55 55 55 55 43 43 42 42 20 20 43 43 21 21 21 21 43 43 54 54 57 57 40 40 4 4 4 4 40 40 5 5 40 40 57 57 41 41 41 41 57 57 56 56</p>
        </triangles>
      </mesh>
    </geometry>
  </library_geometries>
  <library_visual_scenes>
    <visual_scene id="Scene" name="Scene">
      <node id="base_link" name="base_link" type="NODE">
        <matrix sid="transform">1 0 0 0 0 1 0 0 0 0 1 0 0 0 0 1</matrix>
        <instance_geometry url="#base_link-mesh" name="base_link"/>
      </node>
    </visual_scene>
  </library_visual_scenes>
  <scene>
    <instance_visual_scene url="#Scene"/>
  </scene>
</COLLADA>