<?xml version="1.0" encoding="utf-8"?>
<COLLADA xmlns="http://www.collada.org/2005/11/COLLADASchema" version="1.4.1" xmlns:xsi="http://www.w3.org/2001/XMLSchema-instance">
  <asset>
    <contributor>
      <author>Blender User</author>
      <authoring_tool>Blender 4.2.0 commit date:2024-07-16, commit time:06:20, hash:a51f293548ad</authoring_tool>
    </contributor>
    <created>2025-03-05T19:58:46</created>
    <modified>2025-03-05T19:58:46</modified>
    <unit name="meter" meter="1"/>
    <up_axis>Z_UP</up_axis>
  </asset>
  <library_images/>
  <library_geometries>
    <geometry id="base_link-mesh" name="base_link">
      <mesh>
        <source id="base_link-mesh-positions">
          <float_array id="base_link-mesh-positions-array" count="174">-0.04999995 0.5 -0.9 -0.04999995 0.3 -0.9 -0.04999995 0.5 0.25 -0.04999995 0.3 -0.25 -0.04999995 -0.3 -0.9 -0.04999995 -0.5 -0.9 -0.04999995 -0.3 -0.25 -0.04999995 -0.5 0.25 -0.04999995 0.009093225 -0.005249977 -0.04999995 0.01049995 0 -0.04999995 0.009093225 0.005249977 -0.04999995 -0.009093225 -0.005249977 -0.04999995 -0.01049995 0 -0.04999995 -0.009093225 0.005249977 -0.04999995 -0.005249977 -0.009093225 -0.04999995 0 -0.01049995 -0.04999995 0.005249977 -0.009093225 -0.04999995 0.005249977 0.009093225 -0.04999995 0 0.01049995 -0.04999995 -0.005249977 0.009093225 0.04999995 -0.5 -0.9 0.04999995 -0.3 -0.9 0.04999995 -0.5 0.25 0.04999995 -0.3 -0.25 0.04999995 0.3 -0.9 0.04999995 0.5 -0.9 0.04999995 0.3 -0.25 0.04999995 0.5 0.25 0.04999995 0 -0.01049995 0.04999995 0.005249977 -0.009093225 0.04999995 0.005249977 0.009093225 0.04999995 0 0.01049995 0.04999995 -0.005249977 0.009093225 0.04999995 -0.009093225 0.005249977 0.04999995 0.009093225 0.005249977 0.04999995 0.01049995 0 0.04999995 0.009093225 -0.005249977 0.04999995 -0.005249977 -0.009093225 0.04999995 -0.009093225 -0.005249977 0.04999995 -0.01049995 0 -0.4 -0.5 -0.9 -0.4 -0.5 -1 0.4 -0.5 -1 0.4 -0.5 -0.9 0.4 0.5 -1 -0.4 0.5 -1 -0.4 0.5 -0.9 0.4 0.5 -0.9 -0.04999995 0.01049995 0 0.04999995 0.01049995 0 0.4 0.3 -1 -0.4 0.3 -1 0.4 0.3 -0.9 -0.4 0.3 -0.9 0.4 -0.3 -0.9 0.4 -0.3 -1 -0.4 -0.3 -1 -0.4 -0.3 -0.9</float_array>
          <technique_common>
            <accessor source="#base_link-mesh-positions-array" count="58" stride="3">
              <param name="X" type="float"/>
              <param name="Y" type="float"/>
              <param name="Z" type="float"/>
            </accessor>
          </technique_common>
        </source>
        <source id="base_link-mesh-normals">
          <float_array id="base_link-mesh-normals-array" count="174">-0.3015144 0.904532 0.3015145 -0.3015079 -0.9045362 0.3015084 -0.5773327 0.5773591 0.5773591 -0.9045358 -0.3015094 -0.301508 -0.3015122 0.9045347 0.3015085 -0.3015019 -0.9045352 0.3015171 -0.9045298 0.3015177 -0.3015177 -0.5773425 -0.577355 0.5773534 -0.770255 -0.5522949 0.3188694 -1 -5.97404e-7 0 -0.7702623 -0.5522888 -0.3188623 -0.7702586 0.5522927 0.3188645 -0.7702518 0.63774 -1.50317e-6 -0.7702623 0.5522874 -0.318865 -0.7702617 0.318865 0.5522881 -0.7702627 1.49687e-6 0.6377268 -0.7702617 -0.3188623 0.5522897 -0.7702519 -0.3188709 -0.5522982 -0.7702638 -1.49687e-6 -0.6377255 -0.7702519 0.3188682 -0.5522997 0.30151 -0.9045345 0.3015117 0.3015123 0.9045333 0.3015127 0.5773327 -0.5773591 0.5773591 0.9045355 0.30151 -0.3015086 0.3015165 -0.9045318 0.3015128 0.3014975 0.9045378 0.3015142 0.9045304 -0.3015169 -0.3015168 0.5773425 0.577355 0.5773534 0.770263 -1.49687e-6 0.6377264 0.7702608 -0.3188657 0.5522891 0.770252 -0.3188684 -0.5522997 0.7702638 1.49687e-6 -0.6377255 0.770252 0.318871 -0.5522982 0.7702623 0.5522888 -0.3188624 0.7702623 -0.5522873 -0.318865 1 -4.22529e-7 0 0.7702586 -0.5522927 0.3188645 0.7702615 0.3188625 0.5522896 0.770255 0.5522949 0.3188694 0.7702555 0.6377357 1.50316e-6 -0.5773527 -0.5773527 0.5773456 -0.5773547 -0.5773457 -0.5773504 0.5773612 -0.5773286 -0.5773611 0.5773405 -0.5773587 0.5773516 0.5773565 0.5773422 -0.5773522 -0.5773593 0.5773322 -0.5773593 -0.5773405 0.5773587 0.5773516 0.5773527 0.5773527 0.5773456 0 -1 2.35917e-6 0 -1 -2.35702e-6 0.5773593 -0.5773322 -0.5773593 -0.5773565 -0.5773422 -0.5773522 0.5773382 -0.5773563 0.5773563 -0.5773503 -0.5773503 0.5773503 0.5773503 0.5773503 0.5773503 0.5773547 0.5773457 -0.5773504 -0.5773611 0.5773286 -0.5773611 -0.5773382 0.5773563 0.5773563</float_array>
          <technique_common>
            <accessor source="#base_link-mesh-normals-array" count="58" stride="3">
              <param name="X" type="float"/>
              <param name="Y" type="float"/>
              <param name="Z" type="float"/>
            </accessor>
          </technique_common>
        </source>
        <vertices id="base_link-mesh-vertices">
          <input semantic="POSITION" source="#base_link-mesh-positions"/>
        </vertices>
        <triangles count="112">
          <input semantic="VERTEX" source="#base_link-mesh-vertices" offset="0"/>
          <input semantic="NORMAL" source="#base_link-mesh-normals" offset="1"/>
          <p>0 0 1 1 2 2 2 2 1 1 3 3 4 4 5 5 6 6 6 6 5 5 7 7 3 3 8 8 2 2 2 2 8 8 9 9 2 2 9 9 10 10 11 11 6 6 12 12 12 12 6 6 7 7 12 12 7 7 13 13 11 11 14 14 6 6 6 6 14 14 15 15 6 6 15 15 3 3 3 3 15 15 16 16 3 3 16 16 8 8 10 10 17 17 2 2 2 2 17 17 18 18 2 2 18 18 7 7 7 7 18 18 19 19 7 7 19 19 13 13 20 20 21 21 22 22 22 22 21 21 23 23 24 24 25 25 26 26 26 26 25 25 27 27 28 28 23 23 29 29 29 29 23 23 26 26 30 30 27 27 31 31 31 31 27 27 22 22 31 31 22 22 32 32 32 32 22 22 33 33 30 30 34 34 27 27 27 27 34 34 35 35 27 27 35 35 26 26 26 26 35 35 36 36 26 26 36 36 29 29 28 28 37 37 23 23 23 23 37 37 38 38 23 23 38 38 22 22 22 22 38 38 39 39 22 22 39 39 33 33 6 6 3 3 23 23 23 23 3 3 26 26 5 5 40 40 41 41 42 42 43 43 20 20 22 22 7 7 20 20 20 20 7 7 5 5 20 20 5 5 42 42 42 42 5 5 41 41 2 2 7 7 27 27 27 27 7 7 22 22 44 44 45 45 0 0 0 0 45 45 46 46 47 47 44 44 25 25 25 25 44 44 0 0 25 25 0 0 27 27 27 27 0 0 2 2 48 48 49 49 10 10 10 10 49 49 34 34 10 10 34 34 17 17 17 17 34 34 30 30 17 17 30 30 18 18 18 18 30 30 31 31 18 18 31 31 19 19 19 19 31 31 32 32 19 19 32 32 13 13 13 13 32 32 33 33 13 13 33 33 12 12 12 12 33 33 39 39 12 12 39 39 11 11 11 11 39 39 38 38 11 11 38 38 14 14 14 14 38 38 37 37 14 14 37 37 15 15 15 15 37 37 28 28 15 15 28 28 16 16 16 16 28 28 29 29 16 16 29 29 8 8 8 8 29 29 36 36 8 8 36 36 48 48 48 48 36 36 49 49 50 50 51 51 44 44 44 44 51 51 45 45 51 51 50 50 24 24 24 24 50 50 52 52 53 53 51 51 1 1 1 1 51 51 24 24 1 1 24 24 3 3 3 3 24 24 26 26 21 21 54 54 55 55 56 56 57 57 4 4 6 6 23 23 4 4 4 4 23 23 21 21 4 4 21 21 56 56 56 56 21 21 55 55 42 42 41 41 55 55 55 55 41 41 56 56 47 47 52 52 44 44 44 44 52 52 50 50 52 52 47 47 24 24 24 24 47 47 25 25 0 0 46 46 1 1 1 1 46 46 53 53 53 53 46 46 51 51 51 51 46 46 45 45 54 54 43 43 55 55 55 55 43 43 42 42 20 20 43 43 21 21 21 21 43 43 54 54 57 57 40 40 4 4 4 4 40 40 5 5 40 40 57 57 41 41 41 41 57 57 56 56</p>
        </triangles>
      </mesh>
    </geometry>
  </library_geometries>
  <library_visual_scenes>
    <visual_scene id="Scene" name="Scene">
      <node id="base_link" name="base_link" type="NODE">
        <matrix sid="transform">1 0 0 0 0 1 0 0 0 0 1 0 0 0 0 1</matrix>
        <instance_geometry url="#base_link-mesh" name="base_link"/>
      </node>
    </visual_scene>
  </library_visual_scenes>
  <scene>
    <instance_visual_scene url="#Scene"/>
  </scene>
</COLLADA>